# xmcd
#
# Track frame offsets:
#       150
#       15911
#       32292
#       62980
#       82667
#       116710
#       132999
#       150637
#       170524
#       187678
#       204871
#       225187
#       247400
#       275512
#       298416
#       323471
#
# Disc length: 4525 seconds
#
# Revision: 0
# Processed by: cddbd v1.5.1PL2 Copyright (c) Steve Scherf et al.
# Submitted via: WhereIsIt 3.62
#
DISCID=ca11ab10
DTITLE=Napoli 01
DYEAR=2006
DGENRE=wrk
TTITLE0=ATB - Trilogy
TTITLE1=Dido - Thank you
TTITLE2=DNA - Vivo
TTITLE3=Enigma - Callas Went Away
TTITLE4=Enigma - The Eyes Of Truth
TTITLE5=Enya - Only Time
TTITLE6=Jean Michel Jarre - Oxygene 8
TTITLE7=John Williams - Everything I Do
TTITLE8=Laura Pausini - Fidati Di Me
TTITLE9=Laura Pausini - Viaggio Con Te
TTITLE10=Lauren - Crazy Times
TTITLE11=Llaurent Garnier - The Man Whith The Red Face
TTITLE12=Robert Miles - In My Dreams
TTITLE13=Sophie Ellis Bextor - Take Me Home
TTITLE14=Spandau Ballet - True
TTITLE15=Tavares - Heaven Must Be Missing An Angel
EXTD=For Napoli\nGedimino g. 33, Kaunas Lithuania
EXTT0=
EXTT1=
EXTT2=
EXTT3=
EXTT4=
EXTT5=
EXTT6=
EXTT7=
EXTT8=
EXTT9=
EXTT10=
EXTT11=
EXTT12=
EXTT13=
EXTT14=
EXTT15=
PLAYORDER=
